<?xml version="1.0" standalone="no"?>
<!DOCTYPE svg PUBLIC "-//W3C//DTD SVG 1.1//EN" "http://www.w3.org/Graphics/SVG/1.1/DTD/svg11.dtd" >
<svg xmlns="http://www.w3.org/2000/svg">
<metadata></metadata>
<defs>
<font id="ArevSansBold" horiz-adv-x="1425" >
<font-face units-per-em="2048" ascent="1556" descent="-492" />
<missing-glyph horiz-adv-x="713" />
<glyph unicode="&#xfb01;" horiz-adv-x="1518" d="M43 864v256h176v78q0 183 102 270.5t316 87.5h274v-235h-198q-75 0 -104 -27.5t-29 -95.5v-78h766v-1120h-361v864h-405v-864h-361v864h-176zM985 1264v292h361v-292h-361z" />
<glyph unicode="&#xfb02;" horiz-adv-x="1518" d="M39 864v256h178v78q0 183 102 270.5t316 87.5h711v-1556h-361v1321h-274q-76 0 -106 -27.5t-30 -95.5v-78h281v-256h-281v-864h-358v864h-178z" />
<glyph unicode="&#xfb03;" horiz-adv-x="2282" d="M39 864v256h178v78q0 183 102 270.5t316 87.5h274v-235h-198q-76 0 -106 -27.5t-30 -95.5v-78h411v78q0 183 102 270.5t316 87.5h274v-235h-198q-76 0 -106 -27.5t-30 -95.5v-78h766v-1120h-361v864h-405v-864h-358v864h-411v-864h-358v864h-178zM1749 1264v292h361v-292 h-361z" />
<glyph unicode="&#xfb04;" horiz-adv-x="2282" d="M39 864v256h178v78q0 183 102 270.5t316 87.5h274v-235h-198q-76 0 -106 -27.5t-30 -95.5v-78h411v78q0 183 102 270.5t316 87.5h706v-1556h-361v1321h-269q-76 0 -106 -27.5t-30 -95.5v-78h306v-256h-306v-864h-358v864h-411v-864h-358v864h-178z" />
<glyph horiz-adv-x="1229" d="M102 -362v1806h1024v-1806h-1024zM217 -248h795v1577h-795v-1577zM318 930l114 298h46l114 -298h-42l-28 76h-134l-27 -76h-43zM400 1040h110l-55 149zM462 551v299h91q102 0 102 -86q0 -59 -51 -73q24 -7 50 -58l41 -82h-44l-38 77q-15 30 -29 39.5t-38 9.5h-44v-126 h-40zM502 710h51q59 0 59 53t-59 53h-51v-106zM581 181v299h189v-34h-148v-88h142v-34h-142v-109h152v-34h-193zM681 110h43l94 -251l95 251h42l-114 -299h-46z" />
<glyph horiz-adv-x="1229" d="M102 -362v1806h1024v-1806h-1024zM217 -248h795v1577h-795v-1577zM318 930l114 298h46l114 -298h-42l-28 76h-134l-27 -76h-43zM400 1040h110l-55 149zM462 551v299h91q102 0 102 -86q0 -59 -51 -73q24 -7 50 -58l41 -82h-44l-38 77q-15 30 -29 39.5t-38 9.5h-44v-126 h-40zM502 710h51q59 0 59 53t-59 53h-51v-106zM581 181v299h189v-34h-148v-88h142v-34h-142v-109h152v-34h-193zM681 110h43l94 -251l95 251h42l-114 -299h-46z" />
<glyph horiz-adv-x="2048" />
<glyph unicode="&#xd;" horiz-adv-x="713" />
<glyph unicode=" "  horiz-adv-x="713" />
<glyph unicode="&#x09;" horiz-adv-x="713" />
<glyph unicode="&#xa0;" horiz-adv-x="713" />
<glyph unicode="!" horiz-adv-x="934" d="M287 0v356h360v-356h-360zM287 920v573h360v-573l-51 -418h-258z" />
<glyph unicode="&#x22;" horiz-adv-x="1067" d="M195 938v555h237v-555h-237zM635 938v555h237v-555h-237z" />
<glyph unicode="#" horiz-adv-x="1716" d="M139 383v215h328l70 274h-283v213h338l96 385h223l-96 -385h264l97 385h221l-97 -385h277v-213h-330l-69 -274h284v-215h-336l-96 -383h-221l96 383h-264l-96 -383h-223l96 383h-279zM690 598h264l70 274h-264z" />
<glyph unicode="$" d="M160 941q0 174 122.5 274.5t349.5 109.5l1 231h162v-227q204 -16 401 -69v-254q-200 84 -401 94v-287l32 -6q254 -40 356.5 -133.5t102.5 -276.5q0 -367 -491 -395v-303h-162l-1 301q-248 10 -470 92v262q230 -118 471 -126v311l-33 6q-239 42 -339.5 132t-100.5 264z M477 968q0 -114 156 -132v261q-71 -4 -113.5 -38.5t-42.5 -90.5zM795 232q174 2 174 133q0 68 -40 101.5t-134 43.5v-278z" />
<glyph unicode="%" horiz-adv-x="2052" d="M66 1114q0 189 106.5 297.5t292.5 108.5t292.5 -108.5t106.5 -297.5t-106.5 -298t-292.5 -109t-292.5 109t-106.5 298zM315 1113.5q0 -114.5 39 -177t111 -62.5t110.5 62.5t38.5 177t-39 176.5t-110.5 62t-110.5 -62t-39 -176.5zM449 -29l933 1549h222l-934 -1549h-221z M1186 378.5q0 188.5 107.5 297t293.5 108.5t293 -108t107 -297t-107 -298.5t-293 -109.5t-293.5 109.5t-107.5 298zM1438 378.5q0 -114.5 38.5 -176t110.5 -61.5t110 61.5t38 176t-38.5 176t-109.5 61.5t-110 -61.5t-39 -176z" />
<glyph unicode="&#x26;" horiz-adv-x="1786" d="M123 467q0 146 71.5 258.5t233.5 218.5q-82 103 -82 217q0 163 127 261t323 98t410 -58v-278q-184 94 -342 94q-77 0 -119.5 -29.5t-42.5 -73.5q0 -77 97 -184l409 -450q103 136 113 354h311q-30 -362 -225 -573l293 -322h-424l-98 109q-207 -138 -468.5 -138t-424 138.5 t-162.5 357.5zM469 506q0 -115 85 -196t204 -81q133 0 233 82l-391 432q-131 -95 -131 -237z" />
<glyph unicode="'" horiz-adv-x="627" d="M195 938v555h237v-555h-237z" />
<glyph unicode="(" horiz-adv-x="936" d="M176 641q0 431 299 913h297q-256 -474 -256 -911q0 -441 256 -913h-297q-299 483 -299 911z" />
<glyph unicode=")" horiz-adv-x="936" d="M164 -270q256 476 256 913t-256 911h297q299 -482 299 -913q0 -428 -299 -911h-297z" />
<glyph unicode="*" horiz-adv-x="1071" d="M41 870l334 174l-334 173l76 141l334 -182v344h170v-344l333 182l76 -141l-330 -173l330 -174l-76 -141l-333 184v-344h-170v344l-334 -184z" />
<glyph unicode="+" horiz-adv-x="1716" d="M217 524v236h522v524h238v-524h522v-236h-522v-524h-238v524h-522z" />
<glyph unicode="," horiz-adv-x="778" d="M109 -291l100 373v305h360v-305l-247 -373h-213z" />
<glyph unicode="-" horiz-adv-x="850" d="M111 444v291h628v-291h-628z" />
<glyph unicode="." horiz-adv-x="778" d="M209 0v387h360v-387h-360z" />
<glyph unicode="/" horiz-adv-x="748" d="M0 -190l526 1683h222l-527 -1683h-221z" />
<glyph unicode="0" d="M98 745.5q0 371.5 160 573t454.5 201.5t454.5 -201.5t160 -573t-160 -573t-454.5 -201.5t-454.5 201.5t-160 573zM483 746.5q0 -281.5 53 -397.5t176.5 -116t176.5 116t53 397.5t-52.5 396t-176.5 114.5t-177 -114.5t-53 -396z" />
<glyph unicode="1" d="M231 1159v262l347 72h366v-1227h340v-266h-1044v266h340v965z" />
<glyph unicode="2" d="M162 0v283l545 481q143 129 143 260q0 105 -70.5 169t-187.5 64q-180 0 -426 -153v328q266 88 520 88t402.5 -118t148.5 -329q0 -122 -63 -227.5t-265 -282.5l-319 -280h657v-283h-1085z" />
<glyph unicode="3" d="M137 45v297q218 -109 424 -109q153 0 234.5 53t81.5 152q0 207 -330 207h-154v248h162q287 0 287 184q0 86 -69 133t-195 47q-187 0 -377 -83v282q228 64 446 64q580 0 580 -383q0 -263 -273 -332q308 -80 308 -381q0 -222 -170 -337.5t-496 -115.5q-233 0 -459 74z" />
<glyph unicode="4" d="M92 272v330l598 891h428v-942h213v-279h-213v-272h-364v272h-662zM332 551h422v625z" />
<glyph unicode="5" d="M158 70v303q244 -140 438 -140q140 0 220.5 68.5t80.5 186t-80.5 185.5t-234.5 68t-365 -88v840h957v-283h-650v-231q92 25 181 25q273 0 425 -136.5t152 -379.5t-165.5 -380t-440 -137t-518.5 99z" />
<glyph unicode="6" d="M127 729.5q0 365.5 186.5 577t511.5 211.5q202 0 392 -64v-276q-186 88 -350.5 88t-260.5 -95.5t-112 -283.5q132 98 311 98q229 0 369.5 -134t140.5 -362.5t-157 -373t-434.5 -144.5t-437 196.5t-159.5 562zM539 475q0 -262 202.5 -262t202.5 262t-202.5 262 t-202.5 -262z" />
<glyph unicode="7" d="M137 1210v283h1125v-217l-582 -1276h-375l551 1210h-719z" />
<glyph unicode="8" d="M125 420q0 290 307 375q-274 83 -274 338q0 189 141 288t413 99t413 -98.5t141 -288.5q0 -255 -275 -338q307 -85 307 -375q0 -222 -147.5 -335.5t-438 -113.5t-439 113.5t-148.5 335.5zM489 440q0 -110 58 -168.5t165.5 -58.5t164.5 58.5t57 169t-57 169t-164.5 58.5 t-165.5 -59t-58 -169zM522 1093.5q0 -88.5 49.5 -136.5t140.5 -48t140 48t49 137t-49 136.5t-140 47.5t-140.5 -48t-49.5 -136.5z" />
<glyph unicode="9" d="M106 998.5q0 229.5 156.5 374.5t434 145t437.5 -197t160 -562t-187 -576.5t-513 -211.5q-205 0 -389 62v276q184 -86 349 -86t261 95.5t113 283.5q-136 -100 -312 -100q-229 0 -369.5 133.5t-140.5 363zM477 1014q0 -262 203 -262t203 262t-203 262t-203 -262z" />
<glyph unicode=":" horiz-adv-x="819" d="M229 0v387h361v-387h-361zM229 733v387h361v-387h-361z" />
<glyph unicode=";" horiz-adv-x="819" d="M129 -291l100 373v305h361v-305l-248 -373h-213zM229 733v387h361v-387h-361z" />
<glyph unicode="&#x3c;" horiz-adv-x="1716" d="M217 524v236l1282 463v-250l-964 -332l964 -330v-250z" />
<glyph unicode="=" horiz-adv-x="1716" d="M217 295v237h1282v-237h-1282zM217 752v235h1282v-235h-1282z" />
<glyph unicode="&#x3e;" horiz-adv-x="1716" d="M217 61v250l965 330l-965 332v250l1282 -463v-236z" />
<glyph unicode="?" horiz-adv-x="1188" d="M141 1124v314q236 82 414 82q244 0 372 -99.5t128 -290.5q0 -98 -39 -175.5t-133 -166.5l-64 -57q-68 -62 -89 -99.5t-21 -82.5v-45h-361v49q0 82 33 145.5t139 161.5l64 58q110 100 110 180q0 159 -173.5 159t-379.5 -133zM348 0v356h361v-356h-361z" />
<glyph unicode="@" horiz-adv-x="2048" d="M135 543q0 182 68 347t194 289.5t293.5 192.5t369.5 68t385 -85.5t306 -246.5q152 -199 152 -461.5t-163 -412.5t-460 -150h-39v154q-30 -71 -96.5 -110.5t-155.5 -39.5q-172 0 -279.5 124.5t-107.5 324.5t108 325t279 125q89 0 155.5 -40t96.5 -111v131h209v-693 q124 19 195 119.5t71 257.5q0 203 -117 348q-95 122 -237.5 188t-283.5 66q-260 0 -443 -120q-148 -98 -230.5 -253.5t-82.5 -320.5q0 -320 208 -526q205 -201 506 -201q126 0 252 47t215 127l107 -162q-258 -200 -572 -200q-379 0 -641 256t-262 643zM831 538 q0 -122 52.5 -193t142 -71t142.5 71.5t53 193t-53.5 192t-142.5 70.5t-141.5 -70.5t-52.5 -192.5z" />
<glyph unicode="A" horiz-adv-x="1585" d="M10 0l553 1493h459l553 -1493h-387l-94 272h-602l-95 -272h-387zM588 549h409l-204 594z" />
<glyph unicode="B" horiz-adv-x="1561" d="M188 0v1493h578q311 0 450.5 -94t139.5 -309t-199 -291q124 -36 192 -133t68 -238q0 -216 -146 -322t-444 -106h-639zM573 262h226q233 0 233 195.5t-233 195.5h-226v-391zM573 915h213q185 0 185 158t-185 158h-213v-316z" />
<glyph unicode="C" horiz-adv-x="1503" d="M102 745.5q0 357.5 218 566t591 208.5q247 0 461 -111v-309q-207 141 -421.5 141t-332.5 -132t-118 -363.5t118 -363.5t332.5 -132t421.5 141v-309q-214 -111 -461 -111q-373 0 -591 208.5t-218 566z" />
<glyph unicode="D" horiz-adv-x="1700" d="M188 0v1493h406q340 0 506.5 -48.5t278.5 -156.5q214 -208 214 -540q0 -336 -207 -535q-120 -116 -288 -164.5t-504 -48.5h-406zM573 291h138q236 0 360.5 117t124.5 339.5t-124 338.5t-361 116h-138v-911z" />
<glyph unicode="E" horiz-adv-x="1399" d="M188 0v1493h1039v-291h-654v-278h615v-291h-615v-342h676v-291h-1061z" />
<glyph unicode="F" horiz-adv-x="1399" d="M188 0v1493h1039v-291h-654v-278h615v-291h-615v-633h-385z" />
<glyph unicode="G" horiz-adv-x="1681" d="M102 747q0 359 222 566t608 207q299 0 543 -111v-309q-248 141 -487 141t-363.5 -128.5t-124.5 -366.5t120 -367t341 -129q125 0 204 31v290h-235v258h600v-718q-288 -140 -619 -140q-373 0 -591 208.5t-218 567.5z" />
<glyph unicode="H" horiz-adv-x="1714" d="M188 0v1493h385v-569h568v569h385v-1493h-385v633h-568v-633h-385z" />
<glyph unicode="I" horiz-adv-x="762" d="M188 0v1493h385v-1493h-385z" />
<glyph unicode="J" horiz-adv-x="762" d="M-115 -119h60q243 0 243 264v1348h385v-1348q0 -555 -610 -555h-78v291z" />
<glyph unicode="K" horiz-adv-x="1587" d="M188 0v1493h385v-545l555 545h447l-719 -707l793 -786h-482l-594 588v-588h-385z" />
<glyph unicode="L" horiz-adv-x="1305" d="M188 0v1493h385v-1202h676v-291h-1061z" />
<glyph unicode="M" horiz-adv-x="2038" d="M188 0v1493h490l340 -799l342 799h489v-1493h-364v1092l-344 -805h-244l-344 805v-1092h-365z" />
<glyph unicode="N" horiz-adv-x="1714" d="M188 0v1493h430l543 -1024v1024h365v-1493h-430l-543 1024v-1024h-365z" />
<glyph unicode="O" horiz-adv-x="1741" d="M102 745.5q0 362.5 204 568.5q205 206 564.5 206t563.5 -206t204 -568.5t-204 -568.5t-563.5 -206t-564.5 206q-204 206 -204 568.5zM500 745.5q0 -235.5 97 -365.5t273.5 -130t273.5 130t97 365.5t-97 365.5t-273.5 130t-273.5 -130t-97 -365.5z" />
<glyph unicode="P" horiz-adv-x="1501" d="M188 0v1493h639q285 0 437.5 -126.5t152.5 -361t-152.5 -361t-437.5 -126.5h-254v-518h-385zM573 797h213q112 0 173 54.5t61 154.5t-61 154t-173 54h-213v-417z" />
<glyph unicode="Q" horiz-adv-x="1741" d="M102 744.5q0 363.5 204.5 569.5t565.5 206t563.5 -204t202.5 -571q0 -252 -107.5 -434t-309.5 -274l301 -336h-367l-244 272h-30q-369 0 -574 204t-205 567.5zM500 743q0 -238 95 -365.5t273.5 -127.5t275.5 130t97 365.5t-97 365.5t-273.5 130t-273.5 -130t-97 -368z " />
<glyph unicode="R" horiz-adv-x="1577" d="M188 0v1493h588q295 0 432.5 -99t137.5 -313q0 -293 -287 -383q79 -18 141.5 -81.5t126.5 -192.5l209 -424h-410l-182 371q-55 112 -111.5 153t-150.5 41h-109v-565h-385zM573 831h162q121 0 173.5 45t52.5 147.5t-52.5 146.5t-173.5 44h-162v-383z" />
<glyph unicode="S" horiz-adv-x="1475" d="M147 1057q0 223 144 343t401 120t535 -74v-316q-248 111 -461 111q-138 0 -204 -38t-66 -108t44.5 -103.5t161.5 -57.5l164 -33q249 -50 354 -152t105 -290q0 -247 -146.5 -367.5t-438 -120.5t-580.5 107v325q288 -153 534 -153q126 0 193 42t67 116t-45.5 112t-181.5 68 l-149 33q-224 48 -327.5 153t-103.5 283z" />
<glyph unicode="T" horiz-adv-x="1397" d="M10 1202v291h1376v-291h-495v-1202h-385v1202h-496z" />
<glyph unicode="U" horiz-adv-x="1663" d="M188 598v895h385v-895q0 -185 60.5 -264.5t198 -79.5t198 79.5t60.5 264.5v895h385v-895q0 -317 -159 -472t-484.5 -155t-484.5 155t-159 472z" />
<glyph unicode="V" horiz-adv-x="1585" d="M10 1493h387l396 -1102l395 1102h387l-553 -1493h-459z" />
<glyph unicode="W" horiz-adv-x="2259" d="M61 1493h369l258 -1085l256 1085h371l256 -1085l258 1085h366l-352 -1493h-444l-271 1135l-268 -1135h-444z" />
<glyph unicode="X" horiz-adv-x="1579" d="M39 0l518 762l-498 731h402l327 -481l326 481h404l-498 -731l518 -762h-401l-349 510l-346 -510h-403z" />
<glyph unicode="Y" horiz-adv-x="1483" d="M-20 1493h421l340 -532l340 532h422l-569 -864v-629h-385v629z" />
<glyph unicode="Z" horiz-adv-x="1485" d="M92 0v233l801 969h-778v291h1255v-233l-801 -969h824v-291h-1301z" />
<glyph unicode="[" horiz-adv-x="936" d="M176 -270v1826h621v-225h-281v-1376h281v-225h-621z" />
<glyph unicode="\" horiz-adv-x="748" d="M0 1493h221l527 -1683h-222z" />
<glyph unicode="]" horiz-adv-x="936" d="M139 -45h281v1376h-281v225h621v-1826h-621v225z" />
<glyph unicode="^" horiz-adv-x="1716" d="M207 936l528 557h246l528 -557h-241l-410 301l-409 -301h-242z" />
<glyph unicode="_" horiz-adv-x="1024" d="M0 -293h1024v-190h-1024v190z" />
<glyph unicode="`" horiz-adv-x="1024" d="M94 1638h283l282 -376h-196z" />
<glyph unicode="a" horiz-adv-x="1382" d="M88 336q0 197 135.5 289t425.5 92h211v28q0 85 -67 124.5t-209 39.5q-228 0 -398 -92v273q234 57 463 57q303 0 437.5 -119.5t134.5 -388.5v-639h-361v166q-72 -102 -162 -148.5t-219 -46.5q-174 0 -282.5 101.5t-108.5 263.5zM449 354q0 -68 45.5 -106.5t136.5 -38.5 t160 72.5t69 181.5v41h-186q-225 0 -225 -150z" />
<glyph unicode="b" horiz-adv-x="1466" d="M172 0v1556h358v-600q144 191 361 191t350 -164.5t133 -423.5t-133 -423.5t-350 -164.5t-361 191v-162h-358zM530 559q0 -159 61.5 -243.5t176.5 -84.5t175.5 84t60.5 244t-60.5 244t-175.5 84t-176.5 -84.5t-61.5 -243.5z" />
<glyph unicode="c" horiz-adv-x="1214" d="M88 559q0 277 171 432.5t474 155.5q174 0 344 -62v-292q-143 98 -296 98t-236.5 -87.5t-83.5 -244.5t83.5 -244.5t243.5 -87.5t289 99v-293q-168 -62 -344 -62q-303 0 -474 155.5t-171 432.5z" />
<glyph unicode="d" horiz-adv-x="1466" d="M92 559q0 259 133 423.5t349 164.5t360 -191v600h360v-1556h-360v162q-74 -99 -163 -145t-206 -46q-207 0 -340 164.5t-133 423.5zM463 559q0 -160 60.5 -244t175 -84t175 84t60.5 244t-60.5 244t-175 84t-175 -84t-60.5 -244z" />
<glyph unicode="e" horiz-adv-x="1389" d="M88 556.5q0 276.5 165.5 433.5t442.5 157t435.5 -159t158.5 -425v-102h-837q26 -252 309 -252q227 0 475 135v-276q-257 -97 -508 -97q-304 0 -472.5 154.5t-168.5 431zM457 682h465q0 102 -59.5 164.5t-159.5 62.5t-165 -58.5t-81 -168.5z" />
<glyph unicode="f" horiz-adv-x="891" d="M39 864v256h178v78q0 183 102 270.5t316 87.5h274v-235h-198q-76 0 -106 -27.5t-30 -95.5v-78h306v-256h-306v-864h-358v864h-178z" />
<glyph unicode="g" horiz-adv-x="1466" d="M92 573.5q0 250.5 134 411t339 160.5q117 0 206 -46t163 -145v166h360v-1007q0 -270 -170.5 -412.5t-494.5 -142.5q-205 0 -400 65v279q186 -107 363.5 -107t259.5 77t82 241v77q-143 -190 -358.5 -190t-349.5 161.5t-134 412zM463 571q0 -152 60 -231.5t173.5 -79.5 t175.5 82t62 231.5t-62 231.5t-173.5 82t-173.5 -82t-62 -234z" />
<glyph unicode="h" horiz-adv-x="1458" d="M172 0v1556h358v-600q158 191 362 191q406 0 406 -465v-682h-360v520q0 147 -6.5 202t-25.5 86q-42 69 -145 69t-167 -86.5t-64 -239.5v-551h-358z" />
<glyph unicode="i" horiz-adv-x="702" d="M172 0v1120h358v-1120h-358zM172 1264v292h358v-292h-358z" />
<glyph unicode="j" horiz-adv-x="702" d="M-68 -207h62q102 0 140 46t38 181v1100h358v-1100q0 -225 -108 -343.5t-313 -118.5h-177v235zM172 1264v292h358v-292h-358z" />
<glyph unicode="k" horiz-adv-x="1362" d="M172 0v1556h358v-847l412 411h416l-547 -514l590 -606h-434l-437 467v-467h-358z" />
<glyph unicode="l" horiz-adv-x="702" d="M172 0v1556h358v-1556h-358z" />
<glyph unicode="m" horiz-adv-x="2134" d="M170 0v1120h360v-164q133 191 340 191q116 0 205 -56t135 -157q139 213 367 213q193 0 294 -119t101 -346v-682h-360v584q2 26 2 67q0 119 -35 172.5t-125 53.5t-145.5 -84t-57.5 -243v-550h-360v584q0 186 -32 239.5t-124.5 53.5t-148.5 -84.5t-56 -241.5v-551h-360z " />
<glyph unicode="n" horiz-adv-x="1458" d="M172 0v1120h358v-164q158 191 362 191q406 0 406 -465v-682h-360v522q0 145 -6.5 200t-25.5 86q-42 69 -145 69t-167 -86.5t-64 -239.5v-551h-358z" />
<glyph unicode="o" horiz-adv-x="1407" d="M88 559q0 276 163.5 432t453 156t452 -156t162.5 -432t-162.5 -432t-452 -156t-453 156t-163.5 432zM461 559q0 -161 62.5 -246.5t180.5 -85.5t180 85.5t62 246.5t-62 246.5t-180 85.5t-180.5 -85.5t-62.5 -246.5z" />
<glyph unicode="p" horiz-adv-x="1466" d="M172 -426v1546h358v-164q144 191 361 191t350 -164.5t133 -423.5t-133 -423.5t-350 -164.5t-361 191v-588h-358zM530 559q0 -159 61.5 -243.5t176.5 -84.5t175.5 84t60.5 244t-60.5 244t-175.5 84t-176.5 -84.5t-61.5 -243.5z" />
<glyph unicode="q" horiz-adv-x="1466" d="M92 559q0 259 133 422.5t340 163.5q117 0 206 -46t163 -145v166h360v-1546h-360v588q-74 -99 -163 -145t-206 -46q-207 0 -340 164.5t-133 423.5zM463 559q0 -160 60.5 -244t175 -84t175 84t60.5 244t-60.5 244t-175 84t-175 -84t-60.5 -244z" />
<glyph unicode="r" horiz-adv-x="1010" d="M172 0v1120h358v-184q69 110 158.5 160.5t214.5 50.5q39 0 101 -8v-324q-92 43 -187 43q-138 0 -213 -88q-74 -89 -74 -254v-516h-358z" />
<glyph unicode="s" horiz-adv-x="1219" d="M106 803.5q0 171.5 122 257.5t346.5 86t472.5 -62v-272q-230 96 -427.5 96t-197.5 -104q0 -43 37.5 -66t134.5 -34l63 -9q275 -35 370 -115t95 -251q0 -359 -526 -359q-223 0 -473 70v272q214 -104 436.5 -104t222.5 115q0 48 -36.5 71.5t-145.5 36.5l-63 8 q-239 30 -335 111t-96 252.5z" />
<glyph unicode="t" horiz-adv-x="979" d="M27 864v256h178v318h358v-318h369v-256h-369v-475q0 -78 31 -105.5t123 -27.5h184v-256h-307q-212 0 -300.5 88.5t-88.5 300.5v475h-178z" />
<glyph unicode="u" horiz-adv-x="1458" d="M160 436v684h360v-112l-2 -412q0 -232 26 -274q51 -80 153.5 -80t166.5 86t64 239v553h358v-1120h-358v162q-158 -191 -361.5 -191t-305 119t-101.5 346z" />
<glyph unicode="v" horiz-adv-x="1335" d="M31 1120h358l279 -774l278 774h359l-441 -1120h-393z" />
<glyph unicode="w" horiz-adv-x="1892" d="M72 1120h348l188 -772l189 772h299l188 -764l189 764h348l-295 -1120h-391l-189 770l-188 -770h-391z" />
<glyph unicode="x" horiz-adv-x="1321" d="M31 0l424 573l-404 547h379l229 -332l232 332h379l-404 -545l424 -575h-379l-252 354l-249 -354h-379z" />
<glyph unicode="y" horiz-adv-x="1335" d="M25 1120h358l301 -760l256 760h358l-471 -1226q-71 -187 -165.5 -261.5t-249.5 -74.5h-207v235h112q91 0 132.5 29t64.5 104l10 31z" />
<glyph unicode="z" horiz-adv-x="1192" d="M92 0v250l590 614h-565v256h977v-250l-590 -614h590v-256h-1002z" />
<glyph unicode="{" horiz-adv-x="1458" d="M256 494v223h61q142 0 196 58t54 208v205q0 193 100 280.5t318 87.5h217v-225h-69q-141 0 -183.5 -43.5t-42.5 -185.5v-166q0 -157 -45 -228t-155 -96q111 -27 155.5 -98t44.5 -227v-166q0 -143 42.5 -186.5t183.5 -43.5h69v-225h-217q-218 0 -318 88t-100 281v192 q0 150 -54 208.5t-196 58.5h-61z" />
<glyph unicode="|" horiz-adv-x="748" d="M260 -483v2048h227v-2048h-227z" />
<glyph unicode="}" horiz-adv-x="1458" d="M256 -109h70q140 0 182.5 43.5t42.5 186.5v166q0 156 45 227t156 98q-111 25 -156 96t-45 228v166q0 142 -42.5 185.5t-182.5 43.5h-70v225h217q218 0 318 -87.5t100 -280.5v-205q0 -150 54 -208t196 -58h61v-223h-61q-142 0 -196 -58.5t-54 -208.5v-192 q0 -193 -100 -281t-318 -88h-217v225z" />
<glyph unicode="~" horiz-adv-x="1716" d="M217 434v244q107 80 196 114.5t191 34.5q110 0 266 -67q163 -70 271 -70q164 0 358 160v-244q-106 -80 -195.5 -114.5t-191 -34.5t-244.5 58q-14 6 -22 9l-22 9q-155 61 -249 61q-169 0 -358 -160z" />
<glyph unicode="&#xa0;" />
<glyph unicode="&#xa1;" horiz-adv-x="934" d="M287 0v573l51 418h258l51 -418v-573h-360zM287 1137v356h360v-356h-360z" />
<glyph unicode="&#xa2;" d="M174 575q0 244 135 389.5t393 180.5v287h162l1 -287q146 -6 296 -60v-292q-151 98 -282 98h-15v-663q181 2 297 98v-293q-172 -62 -287 -62h-10v-284h-162v288q-528 81 -528 600zM547 559q0 -216 155 -299v598q-155 -87 -155 -299z" />
<glyph unicode="&#xa3;" d="M125 0v266h227v326h-194v239h194v170q0 271 127 395t402 124q184 0 362 -54v-286q-138 77 -275.5 77t-194 -62.5t-56.5 -193.5v-170h373v-239h-373v-326h538v-266h-1130z" />
<glyph unicode="&#xa4;" horiz-adv-x="1303" d="M74 215l207 207q-56 98 -56 219q0 125 60 217l-209 205l153 154l207 -207q94 59 209 59t227 -55l207 207l152 -154l-207 -207q57 -108 57 -225t-59 -209l207 -207l-154 -153l-207 206q-90 -59 -210 -59t-224 55l-207 -207zM434 640.5q0 -92.5 63 -155.5t155 -63t156 63.5 t64 155.5t-63.5 155.5t-155 63.5t-155.5 -63.5t-64 -156z" />
<glyph unicode="&#xa5;" d="M25 1493h399l289 -461l288 461h400l-336 -539h293v-192h-406l-49 -86v-66h455v-194h-455v-416h-381v416h-454v194h454v66l-49 86h-405v192h292z" />
<glyph unicode="&#xa6;" horiz-adv-x="748" d="M260 -350v758h227v-758h-227zM260 674v758h227v-758h-227z" />
<glyph unicode="&#xa7;" horiz-adv-x="1024" d="M14 668q0 208 224 309q-75 51 -107.5 106.5t-32.5 130.5q0 144 114.5 225t300.5 81t372 -58v-227q-198 78 -314 78q-151 0 -151 -96q0 -75 227 -162q210 -89 289.5 -175.5t79.5 -211.5q0 -230 -230 -324q152 -81 152 -226.5t-121 -229t-309.5 -83.5t-392.5 58v237 q236 -84 354 -84q65 0 104 25t39 65q0 70 -180 144q-246 96 -332 192t-86 226zM299 702q0 -67 61.5 -116t243.5 -115q135 48 135 154q0 67 -69 120t-236 111q-135 -56 -135 -154z" />
<glyph unicode="&#xa8;" horiz-adv-x="1024" d="M197 1339v246h235v-246h-235zM592 1339v246h235v-246h-235z" />
<glyph unicode="&#xa9;" horiz-adv-x="2048" d="M283 741q0 308 217 525q219 219 524 219t524 -219q217 -217 217 -525q0 -305 -217 -522q-219 -219 -524 -219t-524 219q-217 217 -217 522zM434 741q0 -241 174 -415q172 -172 416 -172t416 172q174 174 174 415q0 242 -174 416t-416 174t-416 -174t-174 -416zM600 741.5 q0 194.5 127 311t338 116.5q139 0 258 -43v-215q-111 72 -224.5 72t-177 -64t-63.5 -178.5t63 -177.5t186 -63t216 71v-213q-133 -45 -258 -45q-211 0 -338 117t-127 311.5z" />
<glyph unicode="&#xaa;" horiz-adv-x="1155" d="M158 958q0 261 436 261h137v20q0 115 -174 115t-332 -70v180q184 56 336 56q224 0 332 -87.5t108 -267.5v-448h-245v127q-107 -148 -289 -148q-145 0 -227 67t-82 195zM176 373v200h813v-200h-813zM406 972.5q0 -56.5 33 -85.5t106.5 -29t130.5 57t57 144v22h-90 q-133 0 -185 -26t-52 -82.5z" />
<glyph unicode="&#xab;" horiz-adv-x="1323" d="M158 506v186l493 371v-242l-293 -221l293 -221v-242zM637 506v186l493 371v-242l-292 -221l292 -221v-242z" />
<glyph unicode="&#xac;" horiz-adv-x="1716" d="M217 672v237h1282v-622h-235v385h-1047z" />
<glyph unicode="&#xad;" horiz-adv-x="850" d="M111 444v291h628v-291h-628z" />
<glyph unicode="&#xae;" horiz-adv-x="2048" d="M283 741q0 308 217 525q219 219 524 219t524 -219q217 -217 217 -525q0 -305 -217 -522q-219 -219 -524 -219t-524 219q-217 217 -217 522zM434 741q0 -241 174 -415q172 -172 416 -172t416 172q174 174 174 415q0 242 -174 416t-416 174t-416 -174t-174 -416zM719 338 v836h285q350 0 350 -240q0 -86 -52.5 -142t-148.5 -73q83 -45 141 -160l111 -221h-229l-107 213q-38 78 -67 110.5t-58 32.5h-12v-356h-213zM932 829h35q157 0 157 105q0 102 -157 102h-35v-207z" />
<glyph unicode="&#xaf;" horiz-adv-x="1024" d="M197 1368v188h630v-188h-630z" />
<glyph unicode="&#xb0;" horiz-adv-x="1024" d="M178 1200q0 141 96.5 237.5t235 96.5t238.5 -98q96 -98 96 -236q0 -139 -94 -233q-99 -99 -240 -99t-236.5 95.5t-95.5 236.5zM340 1200q0 -72 49.5 -121t122 -49t122.5 49.5t50 121t-50.5 121.5t-122 50t-121.5 -50t-50 -122z" />
<glyph unicode="&#xb1;" horiz-adv-x="1716" d="M217 0v238h1282v-238h-1282zM217 694v236h522v354h238v-354h522v-236h-522v-354h-238v354h-522z" />
<glyph unicode="&#xb2;" horiz-adv-x="897" d="M109 668v153l313 266q113 98 113 173q0 50 -36.5 81t-95.5 31q-124 0 -288 -92v186q174 54 328.5 54t244.5 -64.5t90 -175.5q0 -72 -35.5 -132.5t-136.5 -146.5l-194 -165h370v-168h-673z" />
<glyph unicode="&#xb3;" horiz-adv-x="897" d="M90 698v174q134 -73 241 -73q212 0 212 124t-221 124h-74v137h84q98 0 143 23.5t45 74.5q0 90 -158 90q-108 0 -245 -53v166q134 35 302 35t256.5 -56t88.5 -161q0 -69 -45 -117t-127 -66q92 -18 143 -73t51 -136q0 -258 -399 -258q-158 0 -297 45z" />
<glyph unicode="&#xb4;" horiz-adv-x="1024" d="M365 1262l282 376h283l-369 -376h-196z" />
<glyph unicode="&#xb5;" horiz-adv-x="1507" d="M174 -428v1548h361v-651q0 -229 202.5 -229t202.5 229v651h360v-749q0 -71 16.5 -99t53.5 -28t72 22v-250q-104 -45 -192 -45t-144.5 37.5t-91.5 120.5q-94 -158 -271 -158q-149 0 -208 95v-494h-361z" />
<glyph unicode="&#xb6;" horiz-adv-x="1303" d="M129 1077q0 184 130 300t345 116h520v-1690h-190v1543h-189v-1543h-190v846q-204 25 -315 134.5t-111 293.5z" />
<glyph unicode="&#xb7;" horiz-adv-x="778" d="M209 518v387h360v-387h-360z" />
<glyph unicode="&#xb8;" horiz-adv-x="1024" d="M262 -223q97 -31 166 -31q123 0 123 91q0 46 -88 163h139q113 -121 113 -215q0 -186 -250 -186q-98 0 -202 26z" />
<glyph unicode="&#xb9;" horiz-adv-x="897" d="M123 1294v160l229 49h226v-678h204v-157h-641v157h207v521z" />
<glyph unicode="&#xba;" horiz-adv-x="1155" d="M117 1108q0 190 123.5 301t337 111t337 -111t123.5 -301t-123 -300t-337 -110t-337.5 110t-123.5 300zM166 373v200h823v-200h-823zM403 1108q0 -116 45.5 -178t129 -62t129 62t45.5 178t-45.5 179t-129 63t-129 -63t-45.5 -179z" />
<glyph unicode="&#xbb;" horiz-adv-x="1323" d="M193 137v242l292 221l-292 221v242l491 -371v-186zM672 137v242l293 221l-293 221v242l493 -371v-186z" />
<glyph unicode="&#xbc;" horiz-adv-x="2120" d="M100 1294v160l230 49h223v-678h205v-157h-639v157h205v521zM510 -29l934 1549h223l-934 -1549h-223zM1202 162v168l373 506h248v-519h137v-155h-137v-162h-230v162h-391zM1354 317h239v324z" />
<glyph unicode="&#xbd;" horiz-adv-x="2120" d="M100 1294v160l230 49h223v-678h205v-157h-639v157h205v521zM510 -29l934 1549h223l-934 -1549h-223zM1346 0v154l315 268q113 97 113 170q0 50 -37 81.5t-97 31.5q-121 0 -286 -93v187q173 53 327.5 53t244 -63.5t89.5 -174.5q0 -72 -36.5 -134t-135.5 -146l-194 -166 h372v-168h-675z" />
<glyph unicode="&#xbe;" horiz-adv-x="2120" d="M104 698v174q134 -73 241 -73q212 0 212 123q0 64 -53 94.5t-168 30.5h-74v137h84q98 0 143.5 23.5t45.5 74.5q0 90 -158 90q-107 0 -246 -53v166q134 35 302 35t256.5 -56t88.5 -161q0 -69 -45 -117t-127 -66q93 -18 144 -73t51 -136q0 -258 -400 -258q-158 0 -297 45z M510 -29l934 1549h223l-934 -1549h-223zM1202 162v168l373 506h248v-519h137v-155h-137v-162h-230v162h-391zM1354 317h239v324z" />
<glyph unicode="&#xbf;" horiz-adv-x="1188" d="M141 360q0 99 39 176.5t133 165.5l64 58q68 61 89 99t21 83v45h361v-49q0 -81 -32.5 -144t-141.5 -163l-64 -58q-108 -98 -108 -179q0 -161 174 -161t379 134v-314q-232 -82 -414 -82q-244 0 -372 99.5t-128 289.5zM487 1137v356h361v-356h-361z" />
<glyph unicode="&#xc0;" horiz-adv-x="1585" d="M10 0l553 1493h459l553 -1493h-387l-94 272h-602l-95 -272h-387zM434 1899h283l198 -264h-196zM588 549h409l-204 594z" />
<glyph unicode="&#xc1;" horiz-adv-x="1585" d="M10 0l553 1493h459l553 -1493h-387l-94 272h-602l-95 -272h-387zM588 549h409l-204 594zM621 1635l198 264h283l-285 -264h-196z" />
<glyph unicode="&#xc2;" horiz-adv-x="1585" d="M10 0l553 1493h459l553 -1493h-387l-94 272h-602l-95 -272h-387zM391 1635l223 264h308l223 -264h-178l-199 161l-199 -161h-178zM588 549h409l-204 594z" />
<glyph unicode="&#xc3;" horiz-adv-x="1585" d="M10 0l553 1493h459l553 -1493h-387l-94 272h-602l-95 -272h-387zM420 1635l2 30q0 106 53.5 171t140.5 65q70 0 150 -49l59 -39q43 -29 76 -29q76 0 76 117h139l-2 -31q0 -106 -53.5 -170.5t-140.5 -64.5q-74 0 -150 49l-56 35q-48 32 -81.5 32t-53.5 -30t-20 -80v-6 h-139zM588 549h409l-204 594z" />
<glyph unicode="&#xc4;" horiz-adv-x="1585" d="M10 0l553 1493h459l553 -1493h-387l-94 272h-602l-95 -272h-387zM453 1653v246h235v-246h-235zM588 549h409l-204 594zM848 1653v246h235v-246h-235z" />
<glyph unicode="&#xc5;" horiz-adv-x="1585" d="M10 0l543 1464q-45 67 -45 168t83.5 185t200.5 84t201 -84t84 -190t-45 -163l543 -1464h-387l-94 272h-602l-95 -272h-387zM588 549h409l-204 594zM662 1616q0 -54 38.5 -92.5t92.5 -38.5t92.5 38.5t38.5 92.5t-39 92.5t-92.5 38.5t-92 -38.5t-38.5 -92.5z" />
<glyph unicode="&#xc6;" horiz-adv-x="2222" d="M0 0l625 1493h1425v-291h-653v-278h614v-291h-614v-342h676v-291h-1061v350h-494l-147 -350h-371zM635 627h377v610h-121z" />
<glyph unicode="&#xc7;" horiz-adv-x="1503" d="M102 745.5q0 357.5 218 566t591 208.5q247 0 461 -111v-309q-207 141 -421.5 141t-332.5 -132t-118 -363.5t118 -363.5t332.5 -132t421.5 141v-309q-214 -111 -461 -111q-373 0 -591 208.5t-218 566zM633 -223q97 -31 166 -31q123 0 123 91q0 46 -88 163h139 q113 -121 113 -215q0 -186 -250 -186q-98 0 -202 26z" />
<glyph unicode="&#xc8;" horiz-adv-x="1399" d="M188 0v1493h1039v-291h-654v-278h615v-291h-615v-342h676v-291h-1061zM358 1899h283l198 -264h-196z" />
<glyph unicode="&#xc9;" horiz-adv-x="1399" d="M188 0v1493h1039v-291h-654v-278h615v-291h-615v-342h676v-291h-1061zM545 1635l198 264h283l-285 -264h-196z" />
<glyph unicode="&#xca;" horiz-adv-x="1399" d="M188 0v1493h1039v-291h-654v-278h615v-291h-615v-342h676v-291h-1061zM315 1635l223 264h308l223 -264h-178l-199 161l-199 -161h-178z" />
<glyph unicode="&#xcb;" horiz-adv-x="1399" d="M188 0v1493h1039v-291h-654v-278h615v-291h-615v-342h676v-291h-1061zM377 1653v246h235v-246h-235zM772 1653v246h235v-246h-235z" />
<glyph unicode="&#xcc;" horiz-adv-x="762" d="M22 1899h283l198 -264h-196zM188 0v1493h385v-1493h-385z" />
<glyph unicode="&#xcd;" horiz-adv-x="762" d="M188 0v1493h385v-1493h-385zM209 1635l198 264h283l-285 -264h-196z" />
<glyph unicode="&#xce;" horiz-adv-x="762" d="M-21 1635l223 264h308l223 -264h-178l-199 161l-199 -161h-178zM188 0v1493h385v-1493h-385z" />
<glyph unicode="&#xcf;" horiz-adv-x="762" d="M41 1653v246h235v-246h-235zM188 0v1493h385v-1493h-385zM436 1653v246h235v-246h-235z" />
<glyph unicode="&#xd0;" horiz-adv-x="1716" d="M33 621v260h174v612h405q341 0 507 -48.5t278 -156.5q215 -209 215 -540q0 -334 -207 -535q-121 -116 -289 -164.5t-504 -48.5h-405v621h-174zM592 291h137q236 0 360.5 117t124.5 339.5t-124 338.5t-361 116h-137v-321h235v-260h-235v-330z" />
<glyph unicode="&#xd1;" horiz-adv-x="1714" d="M188 0v1493h430l543 -1024v1024h365v-1493h-430l-543 1024v-1024h-365zM473 1635l2 30q0 106 53.5 171t140.5 65q70 0 150 -49l59 -39q43 -29 76 -29q76 0 76 117h139l-2 -31q0 -106 -53.5 -170.5t-140.5 -64.5q-74 0 -150 49l-56 35q-48 32 -81.5 32t-53.5 -30t-20 -80 v-6h-139z" />
<glyph unicode="&#xd2;" horiz-adv-x="1741" d="M102 745.5q0 362.5 204 568.5q205 206 564.5 206t563.5 -206t204 -568.5t-204 -568.5t-563.5 -206t-564.5 206q-204 206 -204 568.5zM500 745.5q0 -235.5 97 -365.5t273.5 -130t273.5 130t97 365.5t-97 365.5t-273.5 130t-273.5 -130t-97 -365.5zM512 1899h283l198 -264 h-196z" />
<glyph unicode="&#xd3;" horiz-adv-x="1741" d="M102 745.5q0 362.5 204 568.5q205 206 564.5 206t563.5 -206t204 -568.5t-204 -568.5t-563.5 -206t-564.5 206q-204 206 -204 568.5zM500 745.5q0 -235.5 97 -365.5t273.5 -130t273.5 130t97 365.5t-97 365.5t-273.5 130t-273.5 -130t-97 -365.5zM699 1635l198 264h283 l-285 -264h-196z" />
<glyph unicode="&#xd4;" horiz-adv-x="1741" d="M102 745.5q0 362.5 204 568.5q205 206 564.5 206t563.5 -206t204 -568.5t-204 -568.5t-563.5 -206t-564.5 206q-204 206 -204 568.5zM469 1635l223 264h308l223 -264h-178l-199 161l-199 -161h-178zM500 745.5q0 -235.5 97 -365.5t273.5 -130t273.5 130t97 365.5 t-97 365.5t-273.5 130t-273.5 -130t-97 -365.5z" />
<glyph unicode="&#xd5;" horiz-adv-x="1741" d="M102 745.5q0 362.5 204 568.5q205 206 564.5 206t563.5 -206t204 -568.5t-204 -568.5t-563.5 -206t-564.5 206q-204 206 -204 568.5zM498 1635l2 30q0 106 53.5 171t140.5 65q70 0 150 -49l59 -39q43 -29 76 -29q76 0 76 117h139l-2 -31q0 -106 -53.5 -170.5 t-140.5 -64.5q-74 0 -150 49l-56 35q-48 32 -81.5 32t-53.5 -30t-20 -80v-6h-139zM500 745.5q0 -235.5 97 -365.5t273.5 -130t273.5 130t97 365.5t-97 365.5t-273.5 130t-273.5 -130t-97 -365.5z" />
<glyph unicode="&#xd6;" horiz-adv-x="1741" d="M102 745.5q0 362.5 204 568.5q205 206 564.5 206t563.5 -206t204 -568.5t-204 -568.5t-563.5 -206t-564.5 206q-204 206 -204 568.5zM500 745.5q0 -235.5 97 -365.5t273.5 -130t273.5 130t97 365.5t-97 365.5t-273.5 130t-273.5 -130t-97 -365.5zM531 1653v246h235v-246 h-235zM926 1653v246h235v-246h-235z" />
<glyph unicode="&#xd7;" horiz-adv-x="1716" d="M256 209l434 432l-434 434l168 168l434 -434l434 434l168 -168l-434 -434l434 -432l-168 -168l-434 432l-434 -432z" />
<glyph unicode="&#xd8;" horiz-adv-x="1741" d="M45 39l205 205q-148 200 -148 501q0 363 204.5 569t563.5 206q303 0 504 -152l199 199l113 -115l-201 -199q153 -197 153 -508q0 -362 -204 -568t-564 -206q-306 0 -510 158l-202 -203zM500 745q0 -131 28 -223l605 604q-101 115 -270 115t-266 -130t-97 -366zM604 371 q101 -121 272 -121t268 130t97 365q0 139 -31 234z" />
<glyph unicode="&#xd9;" horiz-adv-x="1663" d="M188 598v895h385v-895q0 -185 60.5 -264.5t198 -79.5t198 79.5t60.5 264.5v895h385v-895q0 -317 -159 -472t-484.5 -155t-484.5 155t-159 472zM473 1899h283l198 -264h-196z" />
<glyph unicode="&#xda;" horiz-adv-x="1663" d="M188 598v895h385v-895q0 -185 60.5 -264.5t198 -79.5t198 79.5t60.5 264.5v895h385v-895q0 -317 -159 -472t-484.5 -155t-484.5 155t-159 472zM660 1635l198 264h283l-285 -264h-196z" />
<glyph unicode="&#xdb;" horiz-adv-x="1663" d="M188 598v895h385v-895q0 -185 60.5 -264.5t198 -79.5t198 79.5t60.5 264.5v895h385v-895q0 -317 -159 -472t-484.5 -155t-484.5 155t-159 472zM430 1635l223 264h308l223 -264h-178l-199 161l-199 -161h-178z" />
<glyph unicode="&#xdc;" horiz-adv-x="1663" d="M188 598v895h385v-895q0 -185 60.5 -264.5t198 -79.5t198 79.5t60.5 264.5v895h385v-895q0 -317 -159 -472t-484.5 -155t-484.5 155t-159 472zM492 1653v246h235v-246h-235zM887 1653v246h235v-246h-235z" />
<glyph unicode="&#xdd;" horiz-adv-x="1483" d="M-20 1493h421l340 -532l340 532h422l-569 -864v-629h-385v629zM570 1635l198 264h283l-285 -264h-196z" />
<glyph unicode="&#xde;" horiz-adv-x="1511" d="M188 0v1493h385v-260h254q285 0 437.5 -126.5t152.5 -361t-152.5 -361t-437.5 -126.5h-254v-258h-385zM573 537h213q112 0 173 54.5t61 154.5t-61 155t-173 55h-213v-419z" />
<glyph unicode="&#xdf;" horiz-adv-x="1473" d="M172 0v1114q0 442 543 442q262 0 396 -112t134 -330v-71q-151 -10 -223 -49t-72 -113q0 -37 24.5 -65.5t117.5 -80.5l69 -37q116 -64 169.5 -148.5t53.5 -201.5q0 -377 -460 -377q-126 0 -277 49v244q114 -55 205.5 -55t135.5 36t44 88t-27.5 86t-125.5 89l-70 39 q-172 96 -172 274q0 116 69.5 195t214.5 129q-1 85 -49 129.5t-139 44.5q-203 0 -203 -219v-1100h-358z" />
<glyph unicode="&#xe0;" horiz-adv-x="1382" d="M88 336q0 197 135.5 289t425.5 92h211v28q0 85 -67 124.5t-209 39.5q-228 0 -398 -92v273q234 57 463 57q303 0 437.5 -119.5t134.5 -388.5v-639h-361v166q-72 -102 -162 -148.5t-219 -46.5q-174 0 -282.5 101.5t-108.5 263.5zM280 1638h283l282 -376h-196zM449 354 q0 -68 45.5 -106.5t136.5 -38.5t160 72.5t69 181.5v41h-186q-225 0 -225 -150z" />
<glyph unicode="&#xe1;" horiz-adv-x="1382" d="M88 336q0 197 135.5 289t425.5 92h211v28q0 85 -67 124.5t-209 39.5q-228 0 -398 -92v273q234 57 463 57q303 0 437.5 -119.5t134.5 -388.5v-639h-361v166q-72 -102 -162 -148.5t-219 -46.5q-174 0 -282.5 101.5t-108.5 263.5zM449 354q0 -68 45.5 -106.5t136.5 -38.5 t160 72.5t69 181.5v41h-186q-225 0 -225 -150zM551 1262l282 376h283l-369 -376h-196z" />
<glyph unicode="&#xe2;" horiz-adv-x="1382" d="M88 336q0 197 135.5 289t425.5 92h211v28q0 85 -67 124.5t-209 39.5q-228 0 -398 -92v273q234 57 463 57q303 0 437.5 -119.5t134.5 -388.5v-639h-361v166q-72 -102 -162 -148.5t-219 -46.5q-174 0 -282.5 101.5t-108.5 263.5zM321 1262l256 376h242l256 -376h-178 l-199 225l-199 -225h-178zM449 354q0 -68 45.5 -106.5t136.5 -38.5t160 72.5t69 181.5v41h-186q-225 0 -225 -150z" />
<glyph unicode="&#xe3;" horiz-adv-x="1382" d="M88 336q0 197 135.5 289t425.5 92h211v28q0 85 -67 124.5t-209 39.5q-228 0 -398 -92v273q234 57 463 57q303 0 437.5 -119.5t134.5 -388.5v-639h-361v166q-72 -102 -162 -148.5t-219 -46.5q-174 0 -282.5 101.5t-108.5 263.5zM350 1309q0 136 51.5 210t144.5 74 q72 0 150 -57l61 -43q45 -31 77.5 -31t52.5 32t20 89v8h139q0 -136 -51.5 -210t-144.5 -74q-69 0 -150 57l-55 37q-4 2 -30.5 19.5t-51.5 17.5q-74 0 -74 -121v-8h-139zM449 354q0 -68 45.5 -106.5t136.5 -38.5t160 72.5t69 181.5v41h-186q-225 0 -225 -150z" />
<glyph unicode="&#xe4;" horiz-adv-x="1382" d="M88 336q0 197 135.5 289t425.5 92h211v28q0 85 -67 124.5t-209 39.5q-228 0 -398 -92v273q234 57 463 57q303 0 437.5 -119.5t134.5 -388.5v-639h-361v166q-72 -102 -162 -148.5t-219 -46.5q-174 0 -282.5 101.5t-108.5 263.5zM383 1339v246h235v-246h-235zM449 354 q0 -68 45.5 -106.5t136.5 -38.5t160 72.5t69 181.5v41h-186q-225 0 -225 -150zM778 1339v246h235v-246h-235z" />
<glyph unicode="&#xe5;" horiz-adv-x="1382" d="M88 336q0 197 135.5 289t425.5 92h211v28q0 85 -67 124.5t-209 39.5q-228 0 -398 -92v273q234 57 463 57q303 0 437.5 -119.5t134.5 -388.5v-639h-361v166q-72 -102 -162 -148.5t-219 -46.5q-174 0 -282.5 101.5t-108.5 263.5zM413 1534q0 118 83.5 201.5t201.5 83.5 t201.5 -83.5t83.5 -201.5t-83.5 -201.5t-201.5 -83.5t-201.5 83.5t-83.5 201.5zM449 354q0 -68 45.5 -106.5t136.5 -38.5t160 72.5t69 181.5v41h-186q-225 0 -225 -150zM567 1533.5q0 -54.5 38.5 -92.5t93 -38t92.5 38.5t38 92.5t-38.5 92.5t-93 38.5t-92.5 -38.5t-38 -93z " />
<glyph unicode="&#xe6;" horiz-adv-x="2146" d="M88 350.5q0 182.5 135.5 274.5t425.5 92h211v28q0 85 -67 124.5t-209 39.5q-228 0 -398 -92v273q242 57 439 57q298 0 438 -156q156 156 412 156t414.5 -159t158.5 -425v-102h-838q28 -252 310 -252q227 0 475 135v-276q-257 -97 -508 -97q-179 0 -311.5 53.5 t-204.5 153.5q-101 -107 -212.5 -157t-250.5 -50q-194 0 -307 98.5t-113 281zM449 354q0 -68 45.5 -106.5t136.5 -38.5t160 72.5t69 181.5v41h-186q-225 0 -225 -150zM1217 682h462q0 102 -59.5 164.5t-159 62.5t-163.5 -58.5t-80 -168.5z" />
<glyph unicode="&#xe7;" horiz-adv-x="1214" d="M88 559q0 277 171 432.5t474 155.5q174 0 344 -62v-292q-143 98 -296 98t-236.5 -87.5t-83.5 -244.5t83.5 -244.5t243.5 -87.5t289 99v-293q-168 -62 -344 -62q-303 0 -474 155.5t-171 432.5zM446 -223q97 -31 166 -31q123 0 123 91q0 46 -88 163h139q113 -121 113 -215 q0 -186 -250 -186q-98 0 -202 26z" />
<glyph unicode="&#xe8;" horiz-adv-x="1389" d="M88 556.5q0 276.5 165.5 433.5t442.5 157t435.5 -159t158.5 -425v-102h-837q26 -252 309 -252q227 0 475 135v-276q-257 -97 -508 -97q-304 0 -472.5 154.5t-168.5 431zM311 1638h283l282 -376h-196zM457 682h465q0 102 -59.5 164.5t-159.5 62.5t-165 -58.5t-81 -168.5z " />
<glyph unicode="&#xe9;" horiz-adv-x="1389" d="M88 556.5q0 276.5 165.5 433.5t442.5 157t435.5 -159t158.5 -425v-102h-837q26 -252 309 -252q227 0 475 135v-276q-257 -97 -508 -97q-304 0 -472.5 154.5t-168.5 431zM457 682h465q0 102 -59.5 164.5t-159.5 62.5t-165 -58.5t-81 -168.5zM582 1262l282 376h283 l-369 -376h-196z" />
<glyph unicode="&#xea;" horiz-adv-x="1389" d="M88 556.5q0 276.5 165.5 433.5t442.5 157t435.5 -159t158.5 -425v-102h-837q26 -252 309 -252q227 0 475 135v-276q-257 -97 -508 -97q-304 0 -472.5 154.5t-168.5 431zM352 1262l256 376h242l256 -376h-178l-199 225l-199 -225h-178zM457 682h465q0 102 -59.5 164.5 t-159.5 62.5t-165 -58.5t-81 -168.5z" />
<glyph unicode="&#xeb;" horiz-adv-x="1389" d="M88 556.5q0 276.5 165.5 433.5t442.5 157t435.5 -159t158.5 -425v-102h-837q26 -252 309 -252q227 0 475 135v-276q-257 -97 -508 -97q-304 0 -472.5 154.5t-168.5 431zM414 1339v246h235v-246h-235zM457 682h465q0 102 -59.5 164.5t-159.5 62.5t-165 -58.5t-81 -168.5z M809 1339v246h235v-246h-235z" />
<glyph unicode="&#xec;" horiz-adv-x="702" d="M-43 1638h283l282 -376h-196zM172 0v1120h358v-1120h-358z" />
<glyph unicode="&#xed;" horiz-adv-x="702" d="M172 0v1120h358v-1120h-358zM228 1262l282 376h283l-369 -376h-196z" />
<glyph unicode="&#xee;" horiz-adv-x="702" d="M-2 1262l256 376h242l256 -376h-178l-199 225l-199 -225h-178zM172 0v1120h358v-1120h-358z" />
<glyph unicode="&#xef;" horiz-adv-x="702" d="M60 1339v246h235v-246h-235zM172 0v1120h358v-1120h-358zM455 1339v246h235v-246h-235z" />
<glyph unicode="&#xf0;" horiz-adv-x="1407" d="M88 559q0 231 150.5 363.5t414.5 132.5q91 0 160 -27l-190 219l-373 -119l-37 129l307 97l-188 202h352l111 -116l376 114l35 -129l-315 -96l205 -229q117 -136 170 -264.5t53 -276.5q0 -276 -162.5 -432t-452 -156t-453 156t-163.5 432zM461 529.5q0 -134.5 65 -218.5 t180.5 -84t177.5 85.5t62 246.5q0 90 -26 184q-110 54 -221 54t-174.5 -66.5t-63.5 -201z" />
<glyph unicode="&#xf1;" horiz-adv-x="1458" d="M172 0v1120h358v-164q158 191 362 191q406 0 406 -465v-682h-360v522q0 145 -6.5 200t-25.5 86q-42 69 -145 69t-167 -86.5t-64 -239.5v-551h-358zM406 1309q0 136 51.5 210t144.5 74q72 0 150 -57l61 -43q45 -31 77.5 -31t52.5 32t20 89v8h139q0 -136 -51.5 -210 t-144.5 -74q-69 0 -150 57l-55 37q-4 2 -30.5 19.5t-51.5 17.5q-74 0 -74 -121v-8h-139z" />
<glyph unicode="&#xf2;" horiz-adv-x="1407" d="M88 559q0 276 163.5 432t453 156t452 -156t162.5 -432t-162.5 -432t-452 -156t-453 156t-163.5 432zM309 1638h283l282 -376h-196zM461 559q0 -161 62.5 -246.5t180.5 -85.5t180 85.5t62 246.5t-62 246.5t-180 85.5t-180.5 -85.5t-62.5 -246.5z" />
<glyph unicode="&#xf3;" horiz-adv-x="1407" d="M88 559q0 276 163.5 432t453 156t452 -156t162.5 -432t-162.5 -432t-452 -156t-453 156t-163.5 432zM461 559q0 -161 62.5 -246.5t180.5 -85.5t180 85.5t62 246.5t-62 246.5t-180 85.5t-180.5 -85.5t-62.5 -246.5zM580 1262l282 376h283l-369 -376h-196z" />
<glyph unicode="&#xf4;" horiz-adv-x="1407" d="M88 559q0 276 163.5 432t453 156t452 -156t162.5 -432t-162.5 -432t-452 -156t-453 156t-163.5 432zM350 1262l256 376h242l256 -376h-178l-199 225l-199 -225h-178zM461 559q0 -161 62.5 -246.5t180.5 -85.5t180 85.5t62 246.5t-62 246.5t-180 85.5t-180.5 -85.5 t-62.5 -246.5z" />
<glyph unicode="&#xf5;" horiz-adv-x="1407" d="M88 559q0 276 163.5 432t453 156t452 -156t162.5 -432t-162.5 -432t-452 -156t-453 156t-163.5 432zM379 1309q0 136 51.5 210t144.5 74q72 0 150 -57l61 -43q45 -31 77.5 -31t52.5 32t20 89v8h139q0 -136 -51.5 -210t-144.5 -74q-69 0 -150 57l-55 37q-4 2 -30.5 19.5 t-51.5 17.5q-74 0 -74 -121v-8h-139zM461 559q0 -161 62.5 -246.5t180.5 -85.5t180 85.5t62 246.5t-62 246.5t-180 85.5t-180.5 -85.5t-62.5 -246.5z" />
<glyph unicode="&#xf6;" horiz-adv-x="1407" d="M88 559q0 276 163.5 432t453 156t452 -156t162.5 -432t-162.5 -432t-452 -156t-453 156t-163.5 432zM412 1339v246h235v-246h-235zM461 559q0 -161 62.5 -246.5t180.5 -85.5t180 85.5t62 246.5t-62 246.5t-180 85.5t-180.5 -85.5t-62.5 -246.5zM807 1339v246h235v-246 h-235z" />
<glyph unicode="&#xf7;" horiz-adv-x="1716" d="M217 524v236h1282v-236h-1282zM705 86v309h307v-309h-307zM705 889v309h307v-309h-307z" />
<glyph unicode="&#xf8;" horiz-adv-x="1407" d="M78 0l145 158q-135 157 -135 417t163.5 416t453.5 156q210 0 360 -88l147 158l109 -101l-141 -149q139 -159 139 -421.5t-162.5 -418.5t-451.5 -156q-213 0 -367 90l-148 -155zM461 559q0 -79 14 -133l381 410q-57 55 -163.5 55t-169 -85.5t-62.5 -246.5zM547 287 q62 -60 168.5 -60t168.5 85.5t62 246.5q0 81 -14 139z" />
<glyph unicode="&#xf9;" horiz-adv-x="1458" d="M160 436v684h360v-112l-2 -412q0 -232 26 -274q51 -80 153.5 -80t166.5 86t64 239v553h358v-1120h-358v162q-158 -191 -361.5 -191t-305 119t-101.5 346zM336 1638h283l282 -376h-196z" />
<glyph unicode="&#xfa;" horiz-adv-x="1458" d="M160 436v684h360v-112l-2 -412q0 -232 26 -274q51 -80 153.5 -80t166.5 86t64 239v553h358v-1120h-358v162q-158 -191 -361.5 -191t-305 119t-101.5 346zM607 1262l282 376h283l-369 -376h-196z" />
<glyph unicode="&#xfb;" horiz-adv-x="1458" d="M160 436v684h360v-112l-2 -412q0 -232 26 -274q51 -80 153.5 -80t166.5 86t64 239v553h358v-1120h-358v162q-158 -191 -361.5 -191t-305 119t-101.5 346zM377 1262l256 376h242l256 -376h-178l-199 225l-199 -225h-178z" />
<glyph unicode="&#xfc;" horiz-adv-x="1458" d="M160 436v684h360v-112l-2 -412q0 -232 26 -274q51 -80 153.5 -80t166.5 86t64 239v553h358v-1120h-358v162q-158 -191 -361.5 -191t-305 119t-101.5 346zM439 1339v246h235v-246h-235zM834 1339v246h235v-246h-235z" />
<glyph unicode="&#xfd;" horiz-adv-x="1335" d="M25 1120h358l301 -760l256 760h358l-471 -1226q-71 -187 -165.5 -261.5t-249.5 -74.5h-207v235h112q91 0 132.5 29t64.5 104l10 31zM521 1262l282 376h283l-369 -376h-196z" />
<glyph unicode="&#xfe;" horiz-adv-x="1466" d="M172 -426v1982h358v-600q144 191 361 191t350 -164.5t133 -423.5t-133 -423.5t-350 -164.5t-361 191v-588h-358zM530 559q0 -159 61.5 -243.5t176.5 -84.5t175.5 84t60.5 244t-60.5 244t-175.5 84t-176.5 -84.5t-61.5 -243.5z" />
<glyph unicode="&#xff;" horiz-adv-x="1335" d="M25 1120h358l301 -760l256 760h358l-471 -1226q-71 -187 -165.5 -261.5t-249.5 -74.5h-207v235h112q91 0 132.5 29t64.5 104l10 31zM353 1339v246h235v-246h-235zM748 1339v246h235v-246h-235z" />
<glyph unicode="&#x152;" horiz-adv-x="2390" d="M102 747.5q0 360.5 237 554t679 193.5l72 -2h1128v-291h-653v-278h614v-291h-614v-342h676v-291h-1151l-72 -2q-442 0 -679 194.5t-237 555zM500 746.5q0 -455.5 575 -455.5h105v911h-105q-575 0 -575 -455.5z" />
<glyph unicode="&#x153;" horiz-adv-x="2241" d="M88 559q0 276 163.5 432t440 156t434.5 -168q82 87 181.5 127.5t234.5 40.5q278 0 439 -157t161 -427v-102h-837q26 -252 309 -252q227 0 475 135v-276q-255 -97 -508 -97q-165 0 -272 40.5t-179 127.5q-164 -168 -439.5 -168t-439 156t-163.5 432zM461 559 q0 -161 62.5 -246.5t180.5 -85.5t180 85.5t62 246.5t-62 246.5t-180 85.5t-180.5 -85.5t-62.5 -246.5zM1309 682h465q0 102 -59.5 164.5t-159.5 62.5t-165 -58.5t-81 -168.5z" />
<glyph unicode="&#x178;" horiz-adv-x="1483" d="M-20 1493h421l340 -532l340 532h422l-569 -864v-629h-385v629zM402 1653v246h235v-246h-235zM797 1653v246h235v-246h-235z" />
<glyph unicode="&#x2c6;" horiz-adv-x="1024" d="M135 1262l256 376h242l256 -376h-178l-199 225l-199 -225h-178z" />
<glyph unicode="&#x2dc;" horiz-adv-x="1024" d="M164 1309q0 136 51.5 210t144.5 74q72 0 150 -57l61 -43q45 -31 77.5 -31t52.5 32t20 89v8h139q0 -136 -51.5 -210t-144.5 -74q-69 0 -150 57l-55 37q-4 2 -30.5 19.5t-51.5 17.5q-74 0 -74 -121v-8h-139z" />
<glyph unicode="&#x2000;" horiz-adv-x="950" />
<glyph unicode="&#x2001;" horiz-adv-x="1901" />
<glyph unicode="&#x2002;" horiz-adv-x="950" />
<glyph unicode="&#x2003;" horiz-adv-x="1901" />
<glyph unicode="&#x2004;" horiz-adv-x="633" />
<glyph unicode="&#x2005;" horiz-adv-x="475" />
<glyph unicode="&#x2006;" horiz-adv-x="316" />
<glyph unicode="&#x2007;" horiz-adv-x="316" />
<glyph unicode="&#x2008;" horiz-adv-x="237" />
<glyph unicode="&#x2009;" horiz-adv-x="380" />
<glyph unicode="&#x200a;" horiz-adv-x="105" />
<glyph unicode="&#x2010;" horiz-adv-x="850" d="M111 444v291h628v-291h-628z" />
<glyph unicode="&#x2011;" horiz-adv-x="850" d="M111 444v291h628v-291h-628z" />
<glyph unicode="&#x2012;" horiz-adv-x="850" d="M111 444v291h628v-291h-628z" />
<glyph unicode="&#x2013;" horiz-adv-x="1024" d="M0 432v258h1024v-258h-1024z" />
<glyph unicode="&#x2014;" horiz-adv-x="2048" d="M0 432v258h2048v-258h-2048z" />
<glyph unicode="&#x2018;" horiz-adv-x="778" d="M211 856v285l227 352h213l-100 -352v-285h-340z" />
<glyph unicode="&#x2019;" horiz-adv-x="778" d="M129 856l100 352v285h340v-285l-227 -352h-213z" />
<glyph unicode="&#x201a;" horiz-adv-x="778" d="M147 -250l101 352v285h340v-285l-230 -352h-211z" />
<glyph unicode="&#x201c;" horiz-adv-x="1346" d="M211 856v285l227 352h213l-100 -352v-285h-340zM717 856v283l227 354h213l-100 -354v-283h-340z" />
<glyph unicode="&#x201d;" horiz-adv-x="1346" d="M188 856l101 352v285h340v-285l-228 -352h-213zM694 856l101 350v287h340v-287l-228 -350h-213z" />
<glyph unicode="&#x201e;" horiz-adv-x="1346" d="M147 -250l101 352v285h340v-285l-230 -352h-211zM653 -250l101 350v287h340v-287l-228 -350h-213z" />
<glyph unicode="&#x2022;" horiz-adv-x="1309" d="M295 762q0 152 104 254q108 104 256 104q150 0 254 -104q105 -105 105 -254q0 -151 -105 -256t-256 -105q-149 0 -254 105q-104 106 -104 256z" />
<glyph unicode="&#x2026;" horiz-adv-x="2048" d="M162 0v387h360v-387h-360zM844 0v387h360v-387h-360zM1526 0v387h360v-387h-360z" />
<glyph unicode="&#x202f;" horiz-adv-x="380" />
<glyph unicode="&#x2039;" horiz-adv-x="844" d="M158 506v186l493 371v-242l-293 -221l293 -221v-242z" />
<glyph unicode="&#x203a;" horiz-adv-x="844" d="M193 137v242l292 221l-292 221v242l493 -371v-186z" />
<glyph unicode="&#x205f;" horiz-adv-x="475" />
<glyph unicode="&#x20ac;" d="M-39 477l88 195h98q-2 28 -2 73.5t2 75.5h-186l88 195h129q77 246 255.5 375t420.5 129t434 -111v-309q-163 157 -364 157q-259 0 -351 -241h539l-86 -195h-493q-3 -24 -3 -69.5t2 -79.5h429l-89 -195h-299q100 -244 351 -244q196 0 364 158v-309q-192 -111 -434 -111 t-421.5 130.5t-254.5 375.5h-217z" />
<glyph unicode="&#x2122;" horiz-adv-x="2048" d="M295 1350v143h518v-143h-174v-435h-172v435h-172zM926 915v578h227l119 -227l119 227h227v-578h-170v437l-137 -256h-76l-137 256v-437h-172z" />
<glyph unicode="&#xe000;" horiz-adv-x="1120" d="M0 0v1120h1120v-1120h-1120z" />
</font>
</defs>
</svg>
